# xmcd
#
# Track frame offsets:
#	150
#	17575
#	40369
#	59559
#	68363
#	85305
#	109572
#	130227
#	162706
#	181500
#	198115
#	209329
#
# Disc length: 3009 seconds
#
# Revision: 1
# Processed by: cddbd v1.5.1PL2 Copyright (c) Steve Scherf et al.
# Submitted via: EasyCDDAExtractor 9.0.0.1
#
DISCID=9c0bbf0c
DTITLE=The Sweet - Nakano Sun Plaza Hall Tokyo 19-08-76
DYEAR=1976
DGENRE=Glam Rock
TTITLE0=Ballroom Blitz
TTITLE1=Yesterday´s Rain 
TTITLE2=Rock and Roll Disgrace 
TTITLE3=Burning - Someone Else 
TTITLE4=Blockbuster
TTITLE5=Restless
TTITLE6=Cockroach 
TTITLE7=Healer
TTITLE8=AC/DC
TTITLE9=Burn On The Flame 
TTITLE10=Keep It In 
TTITLE11=Action
EXTD=
EXTT0=
EXTT1=
EXTT2=
EXTT3=
EXTT4=
EXTT5=
EXTT6=
EXTT7=
EXTT8=
EXTT9=
EXTT10=
EXTT11=
PLAYORDER=
